<svg width="994.33914" height="584.67154" xmlns="http://www.w3.org/2000/svg" data-name="Layer 1">

 <g>
  <title>Layer 1</title>
  <rect x="-69.33334" id="svg_1" fill="#3f3d56" height="2.24072" width="324.03261" y="635.76416"/>
  <path id="svg_2" fill="#3f3d56" d="m916.00581,535.33334l-806,0a9.00984,9.00984 0 0 1 -9,-9l0,-464a9.00984,9.00984 0 0 1 9,-9l806,0a9.00984,9.00984 0 0 1 9,9l0,464a9.00984,9.00984 0 0 1 -9,9zm-806,-480a7.00818,7.00818 0 0 0 -7,7l0,464a7.00818,7.00818 0 0 0 7,7l806,0a7.0085,7.0085 0 0 0 7,-7l0,-464a7.00849,7.00849 0 0 0 -7,-7l-806,0z"/>
  <path id="svg_3" fill="#e6e6e6" d="m429.13031,403.58334l-254.62451,0a8.50982,8.50982 0 0 1 -8.5,-8.5l0,-157a8.50982,8.50982 0 0 1 8.5,-8.5l254.62451,0a8.50981,8.50981 0 0 1 8.5,8.5l0,157a8.50981,8.50981 0 0 1 -8.5,8.5z"/>
  <circle id="svg_6" fill="#e8524a" r="7" cy="73.5732" cx="130.87112"/>
  <circle id="svg_7" fill="#e8524a" r="7" cy="73.5732" cx="150.87112"/>
  <circle id="svg_8" fill="#e8524a" r="7" cy="73.5732" cx="170.87112"/>
  <rect id="svg_9" fill="#3f3d56" height="5" width="822.00002" y="90.33334" x="102.00578"/>
  <path id="svg_10" fill="#3f3d56" d="m192.88129,218.58334a7.5082,7.5082 0 0 0 -7.5,7.5l0,157a7.5082,7.5082 0 0 0 7.5,7.5l254.62451,0a7.5082,7.5082 0 0 0 7.5,-7.5l0,-157a7.5082,7.5082 0 0 0 -7.5,-7.5l-254.62451,0z"/>
  <path id="svg_11" fill="#e8524a" d="m557.5058,220.08334a5.5,5.5 0 0 0 0,11l297,0a5.5,5.5 0 0 0 0,-11l-297,0z"/>
  <path id="svg_12" fill="#e8524a" d="m557.5058,255.08334a5.5,5.5 0 0 0 0,11l297,0a5.5,5.5 0 0 0 0,-11l-297,0z"/>
  <path id="svg_13" fill="#e8524a" d="m557.5058,290.08334a5.5,5.5 0 0 0 0,11l297,0a5.5,5.5 0 0 0 0,-11l-297,0z"/>
  <path id="svg_14" fill="#e6e6e6" d="m557.5058,325.08334a5.5,5.5 0 0 0 0,11l297,0a5.5,5.5 0 0 0 0,-11l-297,0z"/>
  <path id="svg_15" fill="#e6e6e6" d="m557.5058,360.08334a5.5,5.5 0 0 0 0,11l297,0a5.5,5.5 0 0 0 0,-11l-297,0z"/>
  <path id="svg_16" fill="#e6e6e6" d="m557.5058,395.08334a5.5,5.5 0 0 0 0,11l297,0a5.5,5.5 0 0 0 0,-11l-297,0z"/>
  <rect id="svg_22" fill="#2f2e41" height="2" width="10.77148" y="286.40268" x="114.25287"/>
 </g>
</svg>