<svg width="866.52362" height="637.05628" xmlns="http://www.w3.org/2000/svg" data-name="Layer 1">

 <g>
  <title>Layer 1</title>
  <path id="svg_17" fill="#fff" d="m567.16909,463.59776l-322.10239,88.83138l-106.0667,-384.5978l322.10239,-88.83134l106.0667,384.59776z"/>
  <path id="svg_18" fill="#f1f1f1" d="m567.16909,463.59776l-322.10239,88.83138l-106.0667,-384.5978l322.10239,-88.83134l106.0667,384.59776zm-317.98712,81.58182l310.73759,-85.69709l-102.93244,-373.233l-310.7376,85.6971l102.93245,373.23299z"/>
  <path id="svg_19" fill="#e5e5e5" d="m391.00581,251.29346l-80.741,22.26726a4.46018,4.46018 0 0 1 -5.47917,-3.11031l-22.26725,-80.74105a4.46017,4.46017 0 0 1 3.11031,-5.47917l80.74105,-22.26725a4.46016,4.46016 0 0 1 5.47916,3.11031l22.26726,80.74105a4.46016,4.46016 0 0 1 -3.11036,5.47916zm-104.9034,-65.34532a2.676,2.676 0 0 0 -1.86619,3.2875l22.26726,80.74105a2.676,2.676 0 0 0 3.2875,1.86619l80.741,-22.26726a2.676,2.676 0 0 0 1.86619,-3.2875l-22.26726,-80.741a2.676,2.676 0 0 0 -3.2875,-1.86619l-80.741,22.26721z"/>
  <path id="svg_20" fill="#e8524a" d="m370.53841,267.56727l-80.741,22.26726a4.01409,4.01409 0 0 1 -4.93125,-2.79928l-22.26735,-80.74105a4.01409,4.01409 0 0 1 2.79928,-4.93125l80.741,-22.26726a4.01409,4.01409 0 0 1 4.93125,2.79928l22.26726,80.74105a4.01408,4.01408 0 0 1 -2.79919,4.93125z"/>
  <rect transform="rotate(-15.4181 -111.484 61.8385)" id="svg_21" fill="#f1f1f1" height="9.03209" width="233.72825" y="423.80713" x="152.00556"/>
  <rect transform="rotate(-15.4181 -117.294 64.32)" id="svg_22" fill="#f1f1f1" height="9.03209" width="233.72825" y="448.99059" x="152.45619"/>
  <rect transform="rotate(-15.4181 -123.104 66.8016)" id="svg_23" fill="#f1f1f1" height="9.03209" width="233.72825" y="474.17405" x="152.90682"/>
  <rect transform="rotate(-15.4181 -133.33 71.1691)" id="svg_24" fill="#f1f1f1" height="9.03209" width="233.72825" y="518.49696" x="153.69996"/>
  <rect transform="rotate(-15.4181 -139.14 73.6506)" id="svg_25" fill="#f1f1f1" height="9.03209" width="233.72825" y="543.68043" x="154.15059"/>
  <rect transform="rotate(-15.4181 -144.951 76.1321)" id="svg_26" fill="#f1f1f1" height="9.03209" width="233.72825" y="568.8639" x="154.60123"/>
  <path id="svg_27" fill="#fff" d="m670.27621,551.14431l-334.12716,0l0,-398.95562l334.12716,0l0,398.95562z"/>
  <path id="svg_28" fill="#e5e5e5" d="m670.27621,551.14431l-334.12716,0l0,-398.95562l334.12716,0l0,398.95562zm-328.23263,-5.89454l322.33809,0l0,-387.16655l-322.33809,0l0,387.16655z"/>
  <rect id="svg_29" fill="#e8524a" height="9.03209" width="191.03421" y="323.69464" x="418.40817"/>
  <rect id="svg_30" fill="#e8524a" height="9.03209" width="191.03421" y="347.17807" x="418.40817"/>
  <rect id="svg_31" fill="#e8524a" height="9.03209" width="191.03421" y="370.66149" x="418.40817"/>
  <circle id="svg_32" fill="#e8524a" r="5.89453" cy="329.53394" cx="402.87741"/>
  <rect id="svg_33" fill="#e5e5e5" height="9.03209" width="191.03421" y="222.50512" x="418.40817"/>
  <rect id="svg_34" fill="#e5e5e5" height="9.03209" width="191.03421" y="245.98855" x="418.40817"/>
  <rect id="svg_35" fill="#e5e5e5" height="9.03209" width="191.03421" y="269.47198" x="418.40817"/>
  <circle id="svg_36" fill="#e5e5e5" r="5.89453" cy="227.36201" cx="402.87741"/>
  <rect id="svg_37" fill="#e5e5e5" height="9.03209" width="191.03421" y="425.86657" x="418.40817"/>
  <rect id="svg_38" fill="#e5e5e5" height="9.03209" width="191.03421" y="449.35" x="418.40817"/>
  <rect id="svg_39" fill="#e5e5e5" height="9.03209" width="191.03421" y="472.83343" x="418.40817"/>
  <circle id="svg_40" fill="#e5e5e5" r="5.89453" cy="430.72346" cx="402.87741"/>
  <circle id="svg_41" fill="#e8524a" r="68.29339" cy="517.20509" cx="654.67691"/>
  <path id="svg_42" fill="#fff" d="m673.59814,512.84846l0,-13.06721a18.92123,18.92123 0 1 0 -37.84245,0l0,13.06721a9.83809,9.83809 0 0 0 -9.39555,9.82325l0,30.87926l56.63355,0l0,-30.87926a9.83809,9.83809 0 0 0 -9.39555,-9.82325zm-18.92123,-25.32648a12.27276,12.27276 0 0 1 12.25846,12.25927l0,13.04444l-24.51691,0l0,-13.04444a12.27275,12.27275 0 0 1 12.25845,-12.25927z"/>
  <path id="svg_43" fill="#e8524a" d="m659.76752,528.09762a5.09061,5.09061 0 1 0 -7.95433,4.207l0,11.065l5.72662,0l0,-11.065a5.08421,5.08421 0 0 0 2.22771,-4.207z"/>
  <path id="svg_44" fill="#cbcbcb" d="m1004.52362,715.65007l-381,0a1,1 0 0 1 0,-2l381,0a1,1 0 0 1 0,2z"/>
 </g>
</svg>