<svg width="866" height="612" xmlns="http://www.w3.org/2000/svg" stroke="null" style="vector-effect: non-scaling-stroke;" data-name="Layer 1">

 <g stroke="null">
  <title stroke="null">Layer 1</title>
  <g stroke="null" id="svg_31">
   <circle stroke="#000000" id="svg_3" fill="#fff" r="5.41077" cy="-472.17502" cx="426.52437"/>
   <path stroke="#000000" fill="#3f3d56" d="m333.17918,446.49404l0,-204.00883a4.88402,4.73754 0 0 1 4.88402,-4.73752l21.79529,0a4.884,4.73752 0 0 1 4.884,4.73752l0,0l0,204.54059l-31.56331,-0.53176z" data-name="Path 1495" id="ba0cc859-1ca5-421a-9acf-7fb9aa3b4e23"/>
   <path stroke="#000000" fill="#3f3d56" d="m405.16563,447.13321l0,-162.21442a4.88402,4.73754 0 0 1 4.884,-4.73754l21.79533,0a4.88402,4.73754 0 0 1 4.884,4.73754l0,0l0,161.86528l-31.56333,0.34913z" data-name="Path 1496" id="a524792d-c043-478e-a7da-ec48af772355"/>
   <path stroke="#000000" fill="#3f3d56" d="m549.1385,446.41028l0,-235.13254a5.2968,5.13794 0 0 1 4.884,-5.46051l21.79529,0a5.29645,5.1376 0 0 1 4.884,5.46051l0,235.74804l-31.56329,-0.6155z" data-name="Path 1513" id="fd6a765d-e5c4-40cb-8615-8d176b643a05"/>
   <path stroke="#000000" fill="#3f3d56" d="m261.1922,446.72985l0,-113.51842c0,-1.45563 2.18673,-2.63624 4.88402,-2.63624l21.79529,0c2.69725,0 4.884,1.1817 4.884,2.63624l0,113.81435l-31.56331,-0.29593z" data-name="Path 1514" id="bd64d803-c830-42f7-b93c-47122685f128"/>
   <path stroke="#000000" fill="#e8524a" d="m477.1515,446.33023l0,-266.83202c0,-3.42207 2.18673,-6.19638 4.884,-6.19638l21.79529,0c2.69727,0 4.88402,2.7743 4.88402,6.19638l0,267.52759l-31.56331,-0.69557z" data-name="Path 1515" id="f4fc54bd-288c-4bcd-8f44-6b7e88ac2463"/>
   <path stroke="#000000" id="svg_16" fill="#3f3d56" d="m674.6342,449.48226l-492.94227,0a1.95612,1.89745 0 0 1 0,-3.7949l492.94227,0a1.95612,1.89745 0 0 1 0,3.7949z"/>
   <path stroke="#000000" id="svg_29" fill="#cacaca" d="m1424.04385,669.58668l-1690.08778,0a1.95612,1.89745 0 0 1 0,-3.7949l1690.08778,0a1.95612,1.89745 0 0 1 0,3.7949z"/>
  </g>
 </g>
</svg>