<svg width="848.28391" height="615.2339" xmlns="http://www.w3.org/2000/svg" data-name="Layer 1">

 <g>
  <title>Layer 1</title>
  <path id="svg_2" fill="#fff" d="m436.9602,99.53949l-4.26947,-0.02385q-2.03345,-1.27134 -4.08612,-2.51286c-0.84712,-0.53471 -1.70412,-1.04952 -2.56155,-1.57434q-21.24279,-12.97391 -42.75125,-24.88928q-21.48886,-11.92522 -43.19386,-22.75165a1.78937,1.78937 0 0 1 -1.02862,-2.04581a0.51534,0.51534 0 0 1 0.07115,-0.14957c0.20183,-0.37889 0.65291,-0.5364 1.31127,-0.21271c1.77484,0.88994 3.55993,1.77993 5.33466,2.68988q21.76425,11.01171 43.3417,23.12254q21.56257,12.10564 42.87944,25.27995c0.29879,0.18167 0.598,0.37335 0.89681,0.555c1.3552,0.83761 2.70059,1.67515 4.05584,2.5127z"/>
  <path id="svg_3" fill="#fff" d="m492.00963,99.84708l-2.64009,-0.01475c-0.59545,-0.8333 -1.18065,-1.6666 -1.7761,-2.5q-20.98532,-29.42769 -41.96185,-58.85538q-34.35146,-48.17766 -68.68242,-96.35523a1.70041,1.70041 0 0 1 -0.297,-0.58168c-0.19573,-0.71113 0.32663,-1.1282 0.99615,-1.05445a2.0056,2.0056 0 0 1 1.395,0.88781q19.25925,27.018 38.50885,54.016q34.17263,47.9367 68.33556,95.86329c1.44865,2.02815 2.89724,4.06624 4.34589,6.09439c0.59533,0.83341 1.19082,1.66676 1.77601,2.5z"/>
  <path id="svg_4" fill="#fff" d="m550.8262,84.5155c-0.13473,4.44933 -0.42922,8.82776 -0.81381,13.16564q-0.11169,1.24443 -0.22387,2.48878l-2.77,-0.01548c0.08471,-0.82949 0.16943,-1.65905 0.24389,-2.48866c0.58532,-6.26685 1.00062,-12.60459 1.057,-19.11439a266.65605,266.65605 0 0 0 -5.24956,-53.75014a334.665,334.665 0 0 0 -16.25856,-55.84172a383.49231,383.49231 0 0 0 -26.60134,-55.24953a1.47569,1.47569 0 0 1 -0.24452,-0.98136c0.11428,-0.78941 1.16541,-1.02353 1.95124,-0.26913a2.29258,2.29258 0 0 1 0.3971,0.50222q1.91668,3.29577 3.76342,6.61116a383.2281,383.2281 0 0 1 25.46063,55.44311a333.08069,333.08069 0 0 1 15.15748,55.9256a263.07433,263.07433 0 0 1 4.1309,53.5739z"/>
  <path id="svg_5" fill="#3f3d56" d="m739.71972,98.47388l-607,0a8.72766,8.72766 0 0 0 -8.71972,8.72l0,411.32a8.72766,8.72766 0 0 0 8.71972,8.72l607,0a8.71242,8.71242 0 0 0 6.63037,-3.06a2.04307,2.04307 0 0 0 0.18994,-0.24a8.1662,8.1662 0 0 0 1.25,-2.11a8.50708,8.50708 0 0 0 0.65967,-3.31l0,-411.31994a8.72954,8.72954 0 0 0 -8.72998,-8.72006zm6.24024,420.04a6.17532,6.17532 0 0 1 -1.03028,3.42a6.44578,6.44578 0 0 1 -2.35986,2.12a6.1843,6.1843 0 0 1 -2.8501,0.69l-607,0a6.23757,6.23757 0 0 1 -6.23,-6.23l0,-411.31994a6.23757,6.23757 0 0 1 6.23,-6.23l607,0a6.23945,6.23945 0 0 1 6.24024,6.23l0,411.31994z"/>
  <rect id="svg_6" fill="#3f3d56" height="2.49281" width="621.95676" y="133.4231" x="125.24265"/>
  <circle id="svg_7" fill="#3f3d56" r="7.47844" cy="117.16998" cx="146.43155"/>
  <circle id="svg_8" fill="#3f3d56" r="7.47844" cy="117.16998" cx="167.93206"/>
  <circle id="svg_9" fill="#3f3d56" r="7.47844" cy="117.16998" cx="189.43257"/>
  <path id="svg_10" fill="#3f3d56" d="m592.31934,191.12583l-312,0a13,13 0 0 1 0,-26l312,0a13,13 0 0 1 0,26zm-312,-24a11,11 0 0 0 0,22l312,0a11,11 0 0 0 0,-22l-312,0z"/>
  <path id="svg_11" fill="#e8524a" d="m306.22484,343.74365l-120,0a17.01917,17.01917 0 0 1 -17,-17l0,-56a17.01917,17.01917 0 0 1 17,-17l120,0a17.01917,17.01917 0 0 1 17,17l0,56a17.01917,17.01917 0 0 1 -17,17z"/>
  <path id="svg_12" fill="#e8524a" d="m496.22495,343.74365l-120,0a17.01919,17.01919 0 0 1 -17.00012,-17l0,-56a17.01919,17.01919 0 0 1 17.00012,-17l120,0a17.01917,17.01917 0 0 1 17,17l0,56a17.01917,17.01917 0 0 1 -17,17z"/>
  <path id="svg_13" fill="#e8524a" d="m686.22495,343.74365l-120,0a17.01917,17.01917 0 0 1 -17,-17l0,-56a17.01917,17.01917 0 0 1 17,-17l120,0a17.01917,17.01917 0 0 1 17,17l0,56a17.01917,17.01917 0 0 1 -17,17z"/>
  <path id="svg_14" fill="#e8524a" d="m306.22484,461.74365l-120,0a17.01917,17.01917 0 0 1 -17,-17l0,-56a17.01917,17.01917 0 0 1 17,-17l120,0a17.01917,17.01917 0 0 1 17,17l0,56a17.01917,17.01917 0 0 1 -17,17z"/>
  <path id="svg_15" fill="#e8524a" d="m496.22495,461.74365l-120,0a17.01919,17.01919 0 0 1 -17.00012,-17l0,-56a17.01919,17.01919 0 0 1 17.00012,-17l120,0a17.01917,17.01917 0 0 1 17,17l0,56a17.01917,17.01917 0 0 1 -17,17z"/>
  <path id="svg_16" fill="#e8524a" d="m686.22495,461.74365l-120,0a17.01917,17.01917 0 0 1 -17,-17l0,-56a17.01917,17.01917 0 0 1 17,-17l120,0a17.01917,17.01917 0 0 1 17,17l0,56a17.01917,17.01917 0 0 1 -17,17z"/>
 </g>
</svg>