<svg width="724.34614" height="519" xmlns="http://www.w3.org/2000/svg" data-name="Layer 1">

 <g>
  <title>Layer 1</title>
  <path id="svg_15" fill="#ccc" d="m506.99963,490l-263,0a7.00787,7.00787 0 0 1 -7,-7l-11.99963,-446.97314a7.01308,7.01308 0 0 1 6.99963,-7.02686l263,0a7.00786,7.00786 0 0 1 7,7l2.17408,80.97314l-1.999,0.05372l-2.1748,-81a5.01188,5.01188 0 0 0 -5.00028,-5.02686l-263,0a5.00581,5.00581 0 0 0 -5,5l11.99964,446.97314a5.01213,5.01213 0 0 0 5.00036,5.02686l263,0a5.00573,5.00573 0 0 0 5,-5l-2.3352,-86.97314l1.99927,-0.05372l2.33569,87a7.01326,7.01326 0 0 1 -6.99976,7.02686z"/>
  <rect transform="rotate(-1.53781 -23.8492 -147.402)" id="svg_16" fill="#ccc" height="38.39957" width="2.00023" y="251.09156" x="494.88847"/>
  <path id="svg_17" fill="#ccc" d="m483.39954,450.60938l-217.85938,0a5.977,5.977 0 0 1 -5.97021,-5.97022l-9.93994,-370.25146a5.98216,5.98216 0 0 1 5.96972,-5.99707l217.85934,0a5.977,5.977 0 0 1 5.97021,5.97021l1.8003,42.59717l-1.99805,0.084l-1.80127,-42.63916a3.98544,3.98544 0 0 0 -3.97119,-4.0122l-217.85934,0a3.97481,3.97481 0 0 0 -3.97009,3.97021l9.93994,370.25146a3.98118,3.98118 0 0 0 3.97058,3.99708l217.85938,0a3.97483,3.97483 0 0 0 3.97021,-3.97022l-1.28735,-48.61279l1.99927,-0.05274l1.28759,48.63916a5.98191,5.98191 0 0 1 -5.96972,5.99657z"/>
  <rect transform="rotate(-1.51626 -23.727 -148.223)" id="svg_18" fill="#ccc" height="38.01331" width="2.00021" y="251.27045" x="471.50206"/>
  <path id="svg_19" fill="#3f3d56" d="m541.36975,238l-255,0a7.00778,7.00778 0 0 1 -6.99975,-6.94238l-4.00025,-108.05762a7.00787,7.00787 0 0 1 7,-7l255,0a7.00763,7.00763 0 0 1 6.99976,6.94238l4.00024,108.05762a7.00786,7.00786 0 0 1 -7,7zm-263.99975,-115.05273l3.99975,108.05273a5.0058,5.0058 0 0 0 5,5l255,0a5.006,5.006 0 0 0 4.99976,-4.94727l-3.99976,-108.05273a5.00573,5.00573 0 0 0 -5,-5l-255,0a5.00587,5.00587 0 0 0 -4.99975,4.94727z"/>
  <path id="svg_20" fill="#3f3d56" d="m589.36975,397l-255,0a7.00778,7.00778 0 0 1 -6.99975,-6.94238l-4.00025,-108.05762a7.00787,7.00787 0 0 1 7,-7l255,0a7.00763,7.00763 0 0 1 6.99976,6.94238l4.00024,108.05762a7.00786,7.00786 0 0 1 -7,7zm-263.99975,-115.05273l3.99975,108.05273a5.0058,5.0058 0 0 0 5,5l255,0a5.006,5.006 0 0 0 4.99976,-4.94727l-3.99976,-108.05273a5.00573,5.00573 0 0 0 -5,-5l-255,0a5.00587,5.00587 0 0 0 -4.99975,4.94727z"/>
  <path id="svg_21" fill="#e8524a" d="m394.86975,298.5a6.5,6.5 0 0 0 0,13l130,0a6.5,6.5 0 0 0 0,-13l-130,0z"/>
  <path id="svg_22" fill="#e8524a" d="m394.86975,329.5a6.5,6.5 0 0 0 0,13l130,0a6.5,6.5 0 0 0 0,-13l-130,0z"/>
  <path id="svg_23" fill="#e8524a" d="m394.86975,360.5a6.5,6.5 0 0 0 0,13l130,0a6.5,6.5 0 0 0 0,-13l-130,0z"/>
  <path id="svg_24" fill="#e8524a" d="m346.86975,139.5a6.5,6.5 0 0 0 0,13l130,0a6.5,6.5 0 0 0 0,-13l-130,0z"/>
  <path id="svg_25" fill="#e8524a" d="m346.86975,170.5a6.5,6.5 0 0 0 0,13l130,0a6.5,6.5 0 0 0 0,-13l-130,0z"/>
  <path id="svg_26" fill="#e8524a" d="m346.86975,201.5a6.5,6.5 0 0 0 0,13l130,0a6.5,6.5 0 0 0 0,-13l-130,0z"/>
  <circle id="svg_27" fill="#e6e6e6" r="10" cy="49" cx="365.36975"/>
 </g>
</svg>