<svg width="884.74802" height="670.84295" xmlns="http://www.w3.org/2000/svg" data-name="Layer 1">

 <g>
  <title>Layer 1</title>
  <circle fill="#e8524a" r="10.941" cy="173.941" cx="290.941" data-name="Ellipse 457" id="e487db8f-4c3a-4358-81eb-d3bded3bc3da"/>
  <path fill="#e8524a" d="m336.03001,168.276a5.6655,5.6655 0 0 0 0,11.331l267.08,0a5.666,5.666 0 0 0 0.186,-11.33l-0.186,0l-267.08,-0.001z" data-name="Path 40" id="befa8199-fde2-4595-b8af-7ec542e82337"/>
  <circle fill="#e8524a" r="10.941" cy="227.083" cx="290.941" data-name="Ellipse 458" id="a758fd92-4e85-4c79-add3-fb6fc696c09d"/>
  <path fill="#e8524a" d="m336.03001,221.418a5.6655,5.6655 0 1 0 0,11.331l267.08,0a5.666,5.666 0 1 0 0.28931,-11.3283q-0.05163,-0.00131 -0.1033,-0.0017l-0.186,0l-267.08001,-0.001z" data-name="Path 40-2" id="a37a06f1-eaa9-4a01-b953-86cff9fa81d3"/>
  <circle fill="#e6e6e6" r="10.941" cy="280.224" cx="290.941" data-name="Ellipse 459" id="ac0f1b1c-068a-4871-a338-e6ba48051488"/>
  <path fill="#e6e6e6" d="m336.03001,274.55901a5.6655,5.6655 0 1 0 0,11.331l267.08,0a5.666,5.666 0 0 0 0.28931,-11.32831q-0.05163,-0.0013 -0.1033,-0.00169l-0.186,0l-267.08001,-0.001z" data-name="Path 40-3" id="a4850c8e-a5f0-41e0-b9ec-5f0f83856b1d"/>
  <circle fill="#e8524a" r="10.941" cy="333.36501" cx="290.941" data-name="Ellipse 460" id="a638f8ef-e148-4354-9dc8-e1896d8f3096"/>
  <path fill="#e8524a" d="m336.03001,327.703a5.6655,5.6655 0 0 0 0,11.331l267.08,0a5.666,5.666 0 0 0 0.186,-11.33l-0.186,0l-267.08,-0.001z" data-name="Path 40-4" id="a7ff1bb5-53b2-44dc-85c4-b215571fc2ba"/>
  <circle fill="#e6e6e6" r="10.941" cy="386.50701" cx="290.941" data-name="Ellipse 461" id="a897c583-e65f-4254-a57a-bb73aaaf39d3"/>
  <path fill="#e6e6e6" d="m336.03001,380.84201a5.6655,5.6655 0 1 0 0,11.331l267.08,0a5.666,5.666 0 1 0 0.291,-11.32827q-0.0525,-0.00133 -0.105,-0.00171l-0.186,0l-267.08,-0.00102z" data-name="Path 40-5" id="b2eca06a-e605-4d26-a472-95d7e229fe7d"/>
  <circle fill="#e8524a" r="10.941" cy="439.648" cx="290.941" data-name="Ellipse 462" id="fdd2d72e-2338-4227-921c-6caaa64befe0"/>
  <path fill="#e8524a" d="m336.03001,433.983a5.6655,5.6655 0 0 0 0,11.331l267.08,0a5.666,5.666 0 1 0 0.291,-11.32828q-0.0525,-0.00133 -0.105,-0.00171l-0.186,0l-267.08,-0.00101z" data-name="Path 40-6" id="ba09c572-37b1-4e69-a482-664e89555f7a"/>
  <circle fill="#e6e6e6" r="10.941" cy="492.79" cx="290.941" data-name="Ellipse 463" id="a8736793-bc89-415c-8e2a-39abf3ac3501"/>
  <path fill="#e6e6e6" d="m336.03001,487.125a5.6655,5.6655 0 1 0 0,11.331l267.08,0a5.666,5.666 0 0 0 0.186,-11.33l-0.186,0l-267.08,-0.001z" data-name="Path 40-7" id="a2a8de98-be9e-4460-8a9d-e7919d941cd6"/>
  <path fill="#e6e6e6" d="m842.18301,549.55701a0.58105,0.58105 0 0 0 0,-0.821l-3.487,-3.487a0.594,0.594 0 0 0 -0.821,0a0.58105,0.58105 0 0 0 0,0.821l3.487,3.487a0.594,0.594 0 0 0 0.821,0z" data-name="Path 2319" id="e480653a-af79-4e16-8c94-accaff2ee601"/>
  <path fill="#e6e6e6" d="m848.05801,554.61099l-3.487,-3.487a0.58053,0.58053 0 0 0 -0.821,0.821l0,0l3.487,3.487a0.58053,0.58053 0 0 0 0.821,-0.821z" data-name="Path 2320" id="a653f458-f153-4835-a375-e0a32b4db210"/>
  <rect fill="#3f3d56" height="2" width="606.09601" y="831.53101" x="558.65201" data-name="Rectangle 254" id="aebaa33f-6c3c-4439-83da-81dea445dad2"/>
 </g>
</svg>